<svg width="97" height="113" viewBox="0 0 97 113" fill="none" xmlns="http://www.w3.org/2000/svg">
<path fill-rule="evenodd" clip-rule="evenodd" d="M48 18C48.8512 18 49.6748 17.8818 50.4553 17.661L57.3194 28.878L34.2703 55.2243L44.4487 66.8587L65.6979 42.5697L82.0325 69.2628C80.1724 70.9116 79 73.3189 79 76C79 77.2664 79.2616 78.4717 79.7336 79.5649L53.9025 97.2057C52.3224 95.8318 50.2583 95 48 95C45.6639 95 43.5357 95.89 41.936 97.3495L17.461 79.0749C17.5878 78.7262 17.6936 78.3673 17.777 78H30V74.6283L41.5405 69.3516L32.0892 58.5482L27.5832 74H17.777C17.4294 72.4682 16.6911 71.0848 15.6725 69.9602L45.0345 17.5C45.9631 17.8239 46.961 18 48 18ZM68.4573 39.4156L85.5447 67.339C85.8566 67.2507 86.1754 67.1789 86.5 67.1244V42.8756C82.2434 42.1614 79 38.4595 79 34C79 33.0295 79.1536 32.0948 79.4379 31.2191L76.9705 29.6845L68.4573 39.4156ZM66.4559 18.4344L56.4178 12.1912C56.7941 11.1994 57 10.1237 57 9C57 4.02944 52.9706 0 48 0C43.0294 0 39 4.02944 39 9C39 10.0559 39.1818 11.0693 39.5159 12.0106L16.4337 27.7065C14.7998 26.0365 12.5209 25 10 25C5.02944 25 1 29.0294 1 34C1 38.2832 3.99202 41.8675 8 42.777V67.0549C3.50005 67.5524 0 71.3674 0 76C0 80.9706 4.02944 85 9 85C11.4453 85 13.6628 84.0248 15.2849 82.4421L39.6502 100.635C39.2309 101.674 39 102.81 39 104C39 108.971 43.0294 113 48 113C52.9706 113 57 108.971 57 104C57 102.734 56.7384 101.528 56.2664 100.435L82.0975 82.7943C83.6776 84.1682 85.7417 85 88 85C92.9706 85 97 80.9706 97 76C97 71.8969 94.2543 68.4351 90.5 67.3518V42.6482C94.2543 41.5649 97 38.1031 97 34C97 29.0294 92.9706 25 88 25C85.4398 25 83.1292 26.069 81.4904 27.7851L79.6394 26.6339L80.073 26.1382L69.8946 14.5038L66.4559 18.4344ZM63.7871 21.485L60.0787 25.7238L53.9675 15.7372C54.0466 15.6672 54.1244 15.5957 54.2009 15.5229L63.7871 21.485ZM19 34C19 38.2832 16.008 41.8675 12 42.777V67.5121C12.1275 67.5572 12.2536 67.605 12.3784 67.6556L41.6143 15.4209L18.529 31.1189C18.8344 32.0234 19 32.9924 19 34ZM76.4379 7.02453L86.6162 18.6589L90.9784 13.6728C91.2207 9.51762 89.5243 1.37353 80.8 2.03835L76.4379 7.02453ZM73.5297 10.3484L72.0757 12.0105L82.2541 23.6449L83.7081 21.9829L73.5297 10.3484Z" fill="#FF4280"/>
</svg>
